# xmcd
# 
# Track frame offsets:
#     150
#     12792
#     24210
#     36850
#     47405
#     58072
#     72390
#     83310
#     94102
#     106880
# 
# Disc length: 1528
# 
# Revision: 1
# Processed by: cddbd v1.5.2PL0 Copyright (c) Steve Scherf et al.
# Submitted via: fre:ac v1.0.17
# 
DISCID=6b05f60a
DTITLE=Various Artist - Opry Legends
DYEAR=1991
DGENRE=Country
TTITLE0=Roy Acuff - Wabash Cannonball
TTITLE1=Sonny James - Young Love
TTITLE2=Tex Ritter - High Noon (Do Not Forsake Me)
TTITLE3=Ferlin Husky - Wings Of a Dove
TTITLE4=Roy Acuff - Fireball Mail
TTITLE5=Tex Ritter - I Dreamed Of a Hillbilly Heaven
TTITLE6=Sonny James - I'll Never Find Another You
TTITLE7=Ferlin Husky - Gone
TTITLE8=Roy Acuff - Great Speckled Bird
TTITLE9=Tex Ritter - Jingle Jangle Jingle
EXTD=
EXTT0=
EXTT1=
EXTT2=
EXTT3=
EXTT4=
EXTT5=
EXTT6=
EXTT7=
EXTT8=
EXTT9=
PLAYORDER=
